Coordinates
version=1
nRows=8
nColumns=40
inDegrees=yes

Units are S.I. units (second, meters, Newtons, ...)
Angles are in degrees.

endheader
time	pelvis_tilt	pelvis_list	pelvis_rotation	pelvis_tx	pelvis_ty	pelvis_tz	hip_flexion_r	hip_adduction_r	hip_rotation_r	knee_angle_r	knee_angle_r_beta	ankle_angle_r	subtalar_angle_r	mtp_angle_r	hip_flexion_l	hip_adduction_l	hip_rotation_l	knee_angle_l	knee_angle_l_beta	ankle_angle_l	subtalar_angle_l	mtp_angle_l	lumbar_extension	lumbar_bending	lumbar_rotation	arm_flex_r	arm_add_r	arm_rot_r	elbow_flex_r	pro_sup_r	wrist_flex_r	wrist_dev_r	arm_flex_l	arm_add_l	arm_rot_l	elbow_flex_l	pro_sup_l	wrist_flex_l	wrist_dev_l
      7.82750000	     -4.52348907	     -6.03645523	     -2.64282517	      1.06323838	      0.92247869	      0.52474498	     18.00990097	      4.91313274	     -8.17478460	     24.01204960	     24.01204960	     11.38908961	     -2.55423628	     -1.89239907	     -2.33736253	    -13.67737078	    -10.04257574	     21.66771840	     21.66771840	     18.67369493	     -5.17056626	     -0.68139188	     -8.06339790	      7.17413406	      1.58535070	      0.41326757	    -19.20504631	     -8.71855216	     37.49148363	     45.75588349	      0.00000000	      0.00000000	     23.76577531	    -18.99908349	     -4.75005024	     68.07405103	     47.37086886	      0.00000000	      0.00000000
      7.85028571	     -4.31405409	     -5.99501333	     -2.29581022	      1.06500465	      0.92279255	      0.52920694	     17.41849702	      5.05608399	     -8.56107716	     24.23519033	     24.23519033	     12.57388733	     -2.06256724	     -0.21600733	     -2.00702877	    -14.07983604	     -9.31946672	     23.13068571	     23.13068571	     17.47970530	     -6.32593295	     -2.46812722	     -7.99745160	      7.01504559	      1.74760192	      1.91581939	    -20.07647250	     -7.62026345	     39.10203484	     45.65006912	      0.00000000	      0.00000000	     22.48786005	    -18.02014540	     -4.31619183	     64.35949253	     47.27655480	      0.00000000	      0.00000000
      7.87307143	     -4.11790300	     -6.08610037	     -1.93505679	      1.06657746	      0.92313802	      0.53347137	     16.64613711	      5.40753951	     -8.82910186	     24.00068143	     24.00068143	     13.03441253	     -1.96772844	     -0.08905075	     -1.41583799	    -14.68803817	     -8.61066876	     25.05935269	     25.05935269	     16.80948809	     -7.08953275	     -3.04184660	     -7.99422077	      7.00140707	      1.80013060	      3.79766873	    -20.68998220	     -7.62095342	     40.11586245	     45.62639562	      0.00000000	      0.00000000	     20.30020187	    -17.31751294	     -3.78485315	     62.56144800	     47.19422994	      0.00000000	      0.00000000
      7.89585714	     -3.88470927	     -6.06126624	     -1.58354118	      1.06799727	      0.92355518	      0.53737745	     15.93354791	      5.60485324	     -9.08257036	     23.95348469	     23.95348469	     13.66244340	     -1.84845948	      0.48593680	     -0.92316994	    -15.06330645	     -7.72832452	     26.72667988	     26.72667988	     15.08418568	     -8.59909858	     -5.49547841	     -7.93720181	      6.90338443	      1.92493485	      5.72305154	    -21.53585022	     -6.39878591	     41.01910293	     45.55552211	      0.00000000	      0.00000000	     18.73085784	    -16.29878477	     -3.40460653	     58.55413049	     47.10142158	      0.00000000	      0.00000000
      7.91864286	     -3.68412697	     -6.01979793	     -1.26998061	      1.06920953	      0.92396282	      0.54121109	     15.24319345	      5.82793308	     -9.19001215	     23.81805102	     23.81805102	     13.99134027	     -1.96129134	      0.49676486	     -0.21067107	    -15.47342620	     -6.98692711	     28.78666273	     28.78666273	     14.04345432	     -9.51849923	     -6.22926180	     -7.90017206	      6.73601438	      1.71348133	      8.06751927	    -21.88845226	     -6.39052297	     42.16887227	     45.53155632	      0.00000000	      0.00000000	     16.27593073	    -15.81135981	     -2.98821196	     55.97917291	     47.01460368	      0.00000000	      0.00000000
      7.94142857	     -3.45704170	     -5.98419592	     -0.91366822	      1.07032184	      0.92440904	      0.54477021	     14.50674449	      6.05125713	     -9.30386501	     23.63598525	     23.63598525	     14.30260394	     -2.11604600	      0.56531835	      0.53524803	    -15.83259803	     -6.10146237	     30.82944614	     30.82944614	     12.21358211	    -10.98812380	     -8.26576572	     -7.81867516	      6.59428166	      1.85216195	     10.34291773	    -22.45674566	     -5.68145486	     42.53413164	     45.51157214	      0.00000000	      0.00000000	     14.56743971	    -14.76945362	     -2.89738206	     51.70365280	     46.94224476	      0.00000000	      0.00000000
      7.96421429	     -3.21133008	     -5.94203124	     -0.51312495	      1.07120016	      0.92474633	      0.54815422	     13.82249771	      6.25725256	     -9.44853934	     23.54888925	     23.54888925	     14.56361821	     -2.43855836	      0.57861672	      1.55209819	    -16.24289204	     -5.31864659	     33.38399383	     33.38399383	     10.99402115	    -11.91112468	     -8.71477671	     -7.80243163	      6.43310447	      1.68791310	     12.61055185	    -22.68388970	     -5.81480930	     43.68514546	     45.49263626	      0.00000000	      0.00000000	     12.00659362	    -14.22563588	     -2.55181667	     49.29515719	     46.85976497	      0.00000000	      0.00000000
      7.98700000	     -2.92409824	     -5.93888135	     -0.07543670	      1.07187819	      0.92496493	      0.55136206	     13.14405744	      6.50729138	     -9.53705725	     23.52640466	     23.52640466	     14.88366189	     -2.78613502	      0.56535054	      2.70267308	    -16.65300724	     -4.41066932	     36.16850580	     36.16850580	      9.63334167	    -12.94122430	     -8.99786297	     -7.87658857	      6.29841508	      1.73956928	     14.83644453	    -22.99357402	     -5.93116431	     44.67069115	     45.47796151	      0.00000000	      0.00000000	      9.60111308	    -13.55081670	     -2.23105755	     46.83073408	     46.78013278	      0.00000000	      0.00000000
